<svg width="250" height="250" viewBox="0 0 250 250" fill="none" xmlns="http://www.w3.org/2000/svg">
<rect width="250" height="250" rx="20" fill="#155DEE"/>
<g clip-path="url(#clip0_612_2783)">
<path d="M71.0863 171.049C58.3086 170.988 47.4965 166.492 38.6498 157.562C29.8031 148.631 25.41 137.776 25.4705 124.999C25.531 112.221 30.0267 101.409 38.9576 92.5623C47.8884 83.7156 58.7427 79.3225 71.5203 79.383C76.6592 79.4074 81.5854 80.3335 86.299 82.1614C91.0126 83.9893 95.2365 86.5787 98.9707 89.9298L113.076 102.913L100.523 114.104L87.6616 102.376C85.4486 100.421 82.9559 98.8818 80.1834 97.7576C77.4109 96.6333 74.4969 96.064 71.4414 96.0495C63.3859 96.0114 56.4975 98.826 50.7762 104.493C45.0548 110.161 42.1751 117.022 42.137 125.078C42.0988 133.133 44.9135 140.022 50.5809 145.743C56.2483 151.464 63.1097 154.344 71.1652 154.382C74.2207 154.397 77.14 153.855 79.923 152.757C82.706 151.659 85.2132 150.143 87.4446 148.209L152.303 90.1823C156.069 86.8668 160.317 84.3174 165.048 82.5342C169.779 80.7511 174.714 79.8717 179.852 79.896C192.63 79.9565 203.442 84.4522 212.289 93.3831C221.136 102.314 225.529 113.168 225.468 125.946C225.408 138.723 220.912 149.536 211.981 158.382C203.05 167.229 192.196 171.622 179.418 171.562C174.28 171.537 169.353 170.611 164.64 168.783C159.926 166.955 155.702 164.366 151.968 161.015L137.863 148.031L150.416 136.841L163.277 148.568C165.49 150.523 167.983 152.063 170.755 153.187C173.528 154.311 176.442 154.881 179.497 154.895C187.553 154.933 194.441 152.119 200.163 146.451C205.884 140.784 208.764 133.922 208.802 125.867C208.84 117.811 206.025 110.923 200.358 105.202C194.69 99.4803 187.829 96.6006 179.774 96.5625C176.718 96.548 173.799 97.0897 171.016 98.1877C168.233 99.2856 165.726 100.802 163.494 102.735L98.6353 160.762C94.8696 164.078 90.6213 166.627 85.8906 168.41C81.1599 170.194 76.2251 171.073 71.0863 171.049Z" fill="white"/>
</g>
<path d="M67 124C67.2833 124 67.5208 123.904 67.7125 123.713C67.9042 123.521 68 123.283 68 123C68 122.717 67.9042 122.479 67.7125 122.287C67.5208 122.096 67.2833 122 67 122C66.7167 122 66.4792 122.096 66.2875 122.287C66.0958 122.479 66 122.717 66 123C66 123.283 66.0958 123.521 66.2875 123.713C66.4792 123.904 66.7167 124 67 124ZM71 124C71.2833 124 71.5208 123.904 71.7125 123.713C71.9042 123.521 72 123.283 72 123C72 122.717 71.9042 122.479 71.7125 122.287C71.5208 122.096 71.2833 122 71 122C70.7167 122 70.4792 122.096 70.2875 122.287C70.0958 122.479 70 122.717 70 123C70 123.283 70.0958 123.521 70.2875 123.713C70.4792 123.904 70.7167 124 71 124ZM75 124C75.2833 124 75.5208 123.904 75.7125 123.713C75.9042 123.521 76 123.283 76 123C76 122.717 75.9042 122.479 75.7125 122.287C75.5208 122.096 75.2833 122 75 122C74.7167 122 74.4792 122.096 74.2875 122.287C74.0958 122.479 74 122.717 74 123C74 123.283 74.0958 123.521 74.2875 123.713C74.4792 123.904 74.7167 124 75 124ZM61 135L61 117C61 116.45 61.1958 115.979 61.5875 115.588C61.9792 115.196 62.45 115 63 115L79 115C79.55 115 80.0208 115.196 80.4125 115.588C80.8042 115.979 81 116.45 81 117L81 129C81 129.55 80.8042 130.021 80.4125 130.413C80.0208 130.804 79.55 131 79 131L65 131L61 135ZM64.15 129L79 129L79 117L63 117L63 130.125L64.15 129Z" fill="white"/>
<defs>
<clipPath id="clip0_612_2783">
<rect x="25.9453" y="25" width="200" height="200" rx="20" transform="rotate(0.271292 25.9453 25)" fill="white"/>
</clipPath>
</defs>
</svg>
